<svg width="360" height="611" viewBox="0 0 360 611" fill="none" xmlns="http://www.w3.org/2000/svg">
<g filter="url(#filter0_d_67_3)">
<path fill-rule="evenodd" clip-rule="evenodd" d="M266.704 317.033C292.257 291.472 293.495 261.292 280.502 240.448C269.972 223.562 250.116 212.806 226.273 215.588C216.502 216.733 207.363 220.501 197.971 224.778C167.272 238.742 169.822 239.054 137.439 236.05C87.5838 231.423 48.8311 289.289 66.0309 333.243C76.2948 359.459 103.173 382.123 155.032 377.865C187.474 375.199 203.223 412.177 235.885 392.905C244.898 387.584 252.033 378.966 253.677 369.171C256.366 353.203 247.487 336.26 266.704 317.033Z" fill="#FFDE59" fill-opacity="0.18"/>
<path d="M132.786 187.31C129.498 204.195 126.29 217.764 124.04 226.738C115.407 261.253 108.664 278.177 106.914 306.499C106.401 315.301 106.514 322.404 106.634 326.815C100.43 328.973 97.2088 335.547 99.4586 341.498C99.5052 341.6 99.5052 341.708 99.5585 341.759C102.081 347.411 108.777 350.135 114.821 347.971C132.454 372.01 155.611 383.307 170.814 377.28C173.869 376.045 178.135 373.537 182.043 367.86L196.094 367.727C199.868 370.705 205.679 374.288 213.067 374.798C235.08 376.325 249.87 349.454 251.001 347.296C259.788 330.831 257.378 314.92 254.316 296.354C249.064 264.627 238.414 254.666 226.267 211.915C222.852 199.873 220.636 189.976 219.418 183.943C220.403 183.446 225.322 180.843 227.066 175.23C228.863 169.355 226.36 162.723 221.241 159.509C214.738 155.442 204.754 157.422 199.615 164.989C193.185 162.583 186.409 161.304 179.493 161.221C169.715 161.183 160.097 163.532 151.517 168.031C145.62 158.529 133.618 156.321 126.756 161.062C121.604 164.639 119.115 172.264 122.003 178.692C124.885 185.235 131.868 187.081 132.786 187.31Z" fill="#C1B3DB"/>
<path d="M161.475 321.94L164.583 300.898C154.213 293.127 148.642 283.529 151.064 276.166C151.244 275.542 152.742 271.068 156.496 269.947C160.956 268.585 167.306 272.334 171.519 279.832L176.471 260.649C175.786 260.165 172.804 257.982 172.238 254.24C171.526 249.613 174.867 245.164 179.054 243.846C184.279 242.191 191.009 245.59 192.926 252.108L210.505 251.21C211.21 243.401 218.499 238.926 223.598 240.276C227.951 241.396 231.559 247.016 230.234 253.31C231.445 259.815 231.745 268.274 227.105 275.593C220.336 286.349 208.122 286.419 205.859 296.017C204.667 301.07 206.464 307.899 211.849 311.114C216.815 314.118 223.851 313.43 229.448 309.338C231.206 318.083 230.42 327.089 227.105 335.42C217.727 334.351 208.361 337.59 201.898 344.203C199.103 345.858 195.009 347.742 189.984 347.748C182.748 347.812 180.671 343.936 172.564 341.492C159.465 337.552 153.055 343.961 147.117 338.863C143.297 335.573 141.333 328.903 144.348 324.505C147.25 320.202 154.685 318.586 161.475 321.94Z" fill="#C1D1F6"/>
<path d="M214.452 250.924C218.353 250.644 222.28 251.446 225.748 253.279C227.305 248.9 224.53 244.852 221.567 244.381C218.712 243.859 214.818 246.526 214.452 250.924ZM177.776 257.925C180.279 254.762 184.053 252.655 188.166 252.171C186.05 247.671 180.891 246.373 178.315 247.983C175.852 249.434 174.834 254.131 177.776 257.925ZM198.923 271.825C202.817 271.742 208.508 273.359 209.3 276.853C210.139 280.494 205.24 284.802 200.254 285.172C194.357 285.674 188.466 280.742 189.145 276.968C189.811 273.766 195.036 271.952 198.923 271.825ZM205.726 167.497C207.223 168.305 208.608 169.215 209.932 170.221C212.695 172.302 215.078 174.784 217.068 177.572C220.017 176.127 221.867 173.155 221.827 169.941C221.721 167.452 220.423 164.83 218.133 163.544C214.605 161.559 209.007 162.946 205.726 167.497ZM134.61 182.727C136.095 176.643 140.794 171.761 146.938 169.858C142.371 163.544 134.95 162.055 131.169 164.62C128.04 166.739 127.561 171.443 128.2 174.568C129.325 179.876 133.971 182.409 134.61 182.727ZM176.784 203.781C182.841 203.641 191.648 206.308 192.872 212.087C194.144 218.178 186.589 225.332 178.848 226.013C169.749 226.815 160.53 218.598 161.688 212.297C162.613 207.078 170.787 203.979 176.784 203.781Z" fill="#F8DFD0"/>
<path d="M208.734 205.761C203.602 205.659 199.356 209.567 199.249 214.493C199.143 219.413 203.216 223.486 208.348 223.588C213.473 223.69 217.72 219.782 217.827 214.862C217.933 209.936 213.86 205.862 208.734 205.761ZM154.16 215.67C154.04 221.169 149.301 225.529 143.576 225.414C137.852 225.306 133.299 220.756 133.419 215.263C133.539 209.77 138.338 205.455 144.009 205.57C149.68 205.684 154.279 210.178 154.16 215.67ZM216.589 272.175C213.886 272.118 211.683 274.148 211.623 276.738C211.57 279.329 213.686 281.448 216.389 281.499C219.085 281.556 221.295 279.526 221.348 276.936C221.401 274.339 219.231 272.226 216.589 272.175ZM187.055 276.255C186.995 278.845 184.792 280.875 182.089 280.818C179.387 280.767 177.277 278.654 177.33 276.064C177.383 273.473 179.593 271.443 182.289 271.494C184.991 271.545 187.108 273.664 187.055 276.255Z" fill="#FF9FB8"/>
<path d="M194.017 279.087C194.144 280.436 195.369 281.448 196.773 281.321C197.046 281.276 197.319 281.225 197.592 281.13C199.495 280.385 199.921 278.323 199.522 276.605C199.475 276.344 199.156 276.185 198.883 276.229C198.617 276.274 198.444 276.586 198.497 276.84C198.743 277.884 198.657 279.125 197.725 279.883C196.846 280.544 195.282 280.354 195.149 279.112C195.056 278.431 193.977 278.412 194.017 279.087Z" fill="#100F0D"/>
<path d="M198.577 277.986C198.111 279.482 198.996 281.003 200.554 281.448C200.66 281.448 200.713 281.499 200.827 281.499C202.657 281.798 204.201 280.22 204.348 278.565C204.414 277.89 203.336 277.871 203.263 278.546C203.19 279.583 202.244 280.602 201.113 280.525C200.148 280.398 199.409 279.507 199.589 278.521C199.595 278.419 199.595 278.368 199.648 278.266C199.708 278.005 199.555 277.693 199.289 277.636C199.016 277.579 198.69 277.725 198.577 277.986Z" fill="#100F0D"/>
<path d="M197.325 275.835C196.939 276.191 196.926 276.758 197.299 277.133C197.718 277.604 198.53 277.566 199.129 277.528C199.615 277.489 200.054 277.184 200.228 276.719C200.401 276.204 200.141 275.682 199.655 275.516C199.602 275.516 199.602 275.516 199.549 275.466C198.69 275.294 196.354 275.866 197.299 277.076C197.878 277.865 200.148 277.655 200.334 276.618C200.58 275.383 198.257 275.338 197.592 275.943C197.259 276.35 197.305 276.923 197.672 277.292C197.725 277.343 197.725 277.343 197.778 277.4C198.257 277.77 198.956 277.833 199.502 277.642C200.048 277.496 200.7 277.197 200.82 276.63C200.94 276.064 200.301 275.688 199.762 275.574C199.116 275.402 198.47 275.44 197.871 275.739C197.432 275.943 197.206 276.503 197.465 276.923C197.518 276.98 197.518 277.031 197.572 277.082C198.311 277.878 199.602 277.903 200.427 277.19C200.594 277.038 200.707 276.885 200.82 276.732C201.053 276.064 200.088 275.682 199.549 275.567C198.85 275.396 198.144 275.542 197.538 275.892C196.939 276.242 197.459 277.133 198.064 276.783C198.557 276.484 199.475 276.344 199.895 276.872L199.742 276.503C199.802 276.299 199.748 276.401 199.582 276.503C199.529 276.554 199.415 276.605 199.309 276.598C199.089 276.649 198.876 276.694 198.717 276.643C198.663 276.637 198.397 276.427 198.444 276.586C198.497 276.738 198.61 276.586 198.77 276.592C199.043 276.541 199.309 276.548 199.582 276.605C199.742 276.662 199.788 276.764 199.795 276.554C199.802 276.35 199.688 276.503 199.529 276.554C199.249 276.7 198.983 276.751 198.71 276.694C198.657 276.688 198.603 276.637 198.603 276.637C198.55 276.586 198.497 276.586 198.444 276.688C198.331 276.789 198.331 276.789 198.497 276.688L198.663 276.637C198.823 276.592 199.256 276.598 199.356 276.758L199.316 276.337C199.422 276.293 199.369 276.287 199.209 276.388L199.043 276.439C198.876 276.49 198.663 276.535 198.504 276.528C198.39 276.528 198.284 276.528 198.177 276.471L198.224 276.732C198.224 276.732 198.717 276.586 198.717 276.535C198.876 276.49 199.096 276.49 199.256 276.446C199.202 276.439 199.043 276.49 198.989 276.49C198.823 276.484 198.663 276.484 198.557 276.484C198.444 276.477 198.397 276.477 198.284 276.477C198.177 276.42 198.124 276.42 198.177 276.579C198.563 276.064 197.825 275.325 197.325 275.835Z" fill="#100F0D"/>
<path d="M175.24 212.978C176.145 213.462 177.277 213.487 178.262 213.042C178.974 212.692 179.26 211.864 178.515 211.336C177.503 210.591 173.39 210.814 174.488 212.755C175.06 213.755 176.418 213.366 177.343 213.226C178.096 213.137 179.294 212.902 178.934 211.915C178.375 210.19 174.701 210.432 174.388 212.24C174.328 212.443 174.435 212.704 174.648 212.813C175.34 213.239 176.145 213.411 176.957 213.328C177.663 213.233 178.695 212.946 178.928 212.17C179.447 210.572 176.644 210.413 175.719 210.814C175.173 211.062 174.455 211.616 174.601 212.291C174.754 212.972 175.559 213.194 176.152 213.258C177.011 213.379 177.883 213.239 178.695 212.946C179.407 212.596 179.42 211.871 178.781 211.444C177.67 210.591 175.353 210.235 174.774 211.883C174.255 213.373 177.064 213.64 177.936 213.137C178.482 212.838 178.715 212.17 178.402 211.642C177.982 210.96 177.064 210.84 176.358 211.031C175.819 211.177 175 211.578 174.934 212.195C174.861 212.972 175.719 213.144 176.312 213.207C177.07 213.277 178.262 213.144 178.388 212.214C178.515 211.438 177.816 211.062 177.117 211.05C176.411 211.031 175.54 211.482 175.899 212.265C176.265 213.054 177.516 212.558 178.062 212.31C178.335 212.163 178.395 211.852 178.295 211.591C178.295 211.54 178.242 211.54 178.189 211.482C177.816 211.113 177.283 210.897 176.738 210.935C176.525 210.929 176.092 211.024 175.979 211.234C175.866 211.438 175.919 211.387 176.192 211.393C176.458 211.393 176.678 211.247 176.897 211.253C177.11 211.253 178.195 211.279 178.242 211.584C178.289 211.794 177.263 211.724 177.104 211.718C176.671 211.712 176.185 211.705 175.753 211.692C175.426 211.686 175.54 211.635 175.426 211.845C175.593 211.591 176.032 211.183 176.358 211.241C177.057 211.355 177.35 210.375 176.644 210.26C175.839 210.139 175.074 210.49 174.628 211.151C174.242 211.667 174.122 212.284 174.814 212.609C175.613 213.042 176.917 212.857 177.783 212.768C178.482 212.73 179.354 212.545 179.32 211.661C179.247 209.999 176.385 209.84 175.34 210.649C174.847 210.999 174.727 211.622 175.094 212.093C175.147 212.151 175.2 212.202 175.253 212.253C176.052 212.895 176.724 211.559 177.363 212.189L177.49 211.368C177.157 211.514 176.778 211.61 176.405 211.552L176.884 211.82C176.931 212.03 177.037 212.081 177.204 212.036C177.037 212.081 176.877 212.081 176.711 212.125C176.445 212.125 176.125 212.011 175.852 212.062C175.959 212.214 176.012 212.221 176.119 212.119C176.232 212.068 176.338 212.017 176.505 211.966C176.778 211.871 176.937 211.979 177.037 212.291C176.871 212.335 176.711 212.335 176.605 212.335C176.438 212.329 175.739 212.265 175.633 212.055C175.739 212.265 176.125 211.858 176.238 211.807C176.671 211.661 177.962 211.839 178.115 212.361L178.175 211.947C177.896 212.412 176.438 212.329 175.959 212.214C175.147 212.042 176.132 211.699 176.511 211.603C176.724 211.559 177.483 211.571 177.59 211.782C177.743 212.093 177.363 212.189 177.09 212.24C176.385 212.431 175.686 212.316 175.1 211.941L175.353 212.513C175.533 211.692 176.884 211.667 177.53 211.985C177.743 212.093 177.796 212.049 177.689 212.144C177.576 212.246 177.25 212.189 177.144 212.24C176.818 212.284 176.005 212.526 175.739 212.418C175.147 212.202 176.125 212.011 176.338 211.966C176.718 211.922 177.15 211.928 177.523 212.042C178.062 212.208 177.303 212.297 176.977 212.342C176.551 212.386 176.119 212.323 175.746 212.106C175.153 211.839 174.541 212.704 175.24 212.978ZM161.368 324.371C160.55 329.692 161.841 335.114 164.876 339.582C165.242 340.155 166.174 339.659 165.808 339.08C162.819 334.72 161.635 329.507 162.453 324.396C162.573 323.722 161.495 323.703 161.368 324.371ZM213.986 329.819C210.791 330.118 207.556 329.953 204.381 329.374C201.472 328.794 198.856 327.445 196.007 326.872C192.127 326.172 188.952 328.132 187.421 331.474C185.943 334.707 186.03 338.443 187.687 341.638C189.764 345.412 193.858 346.322 197.951 346.819C198.65 346.883 198.67 345.845 197.971 345.781C193.611 345.228 189.365 344.057 187.953 339.519C186.888 336.126 187.521 331.735 190.336 329.195C194.084 325.848 199.089 329.113 203.176 330.074C206.724 330.92 210.392 331.149 214.019 330.806C214.672 330.767 214.692 329.73 213.986 329.819ZM202.95 293.108C199.376 290.963 194.816 286.935 190.27 287.253C186.862 287.501 185.284 290.371 184.898 293.318C183.86 301.229 189.737 306.843 197.838 307.263C198.537 307.276 198.557 306.238 197.858 306.226C191.162 305.882 185.69 301.63 185.89 294.897C186.036 290.594 188.386 287.062 193.318 288.818C196.533 289.92 199.509 292.262 202.391 293.974C202.657 294.139 202.983 294.037 203.096 293.783C203.263 293.579 203.216 293.318 202.95 293.108ZM107.28 326.93C108.251 334.516 111.014 341.829 115.3 348.346C115.667 348.919 116.598 348.423 116.232 347.844C111.992 341.434 109.283 334.23 108.311 326.694C108.218 326.013 107.186 326.306 107.28 326.93ZM198.989 346.265C193.611 352.432 192.886 361.184 197.112 368.108C197.266 368.318 197.645 368.376 197.865 368.229C198.084 368.077 198.144 367.816 198.044 367.612C194.017 361.101 194.683 352.872 199.728 347.01C200.174 346.501 199.435 345.756 198.989 346.265ZM182.788 368.395C185.857 361.356 185.757 353.419 182.509 346.412C182.249 345.781 181.264 346.329 181.577 346.908C184.672 353.654 184.725 361.279 181.77 368.064C181.484 368.732 182.502 369.012 182.788 368.395ZM229.888 309.242C233.935 306.989 238.035 304.634 240.391 300.637C240.731 300.077 239.826 299.536 239.486 300.103C237.19 303.947 233.249 306.2 229.369 308.351C229.149 308.504 229.082 308.867 229.242 309.077C229.342 309.281 229.615 309.344 229.888 309.242ZM125.511 293.49C128.134 299.816 132.427 305.965 138.95 309.102C144.674 311.858 152.123 312.056 157.501 308.377C164.523 303.489 158.4 296.94 155.211 291.797C150.619 284.293 148.156 275.797 145.693 267.453C145.646 267.192 145.32 267.026 145.047 267.077C144.781 267.122 144.608 267.427 144.661 267.688C146.518 274.002 148.329 280.309 151.118 286.273C152.562 289.41 154.333 292.453 156.383 295.291C158.686 298.55 161.774 303.075 158.133 306.576C153.175 311.247 144.641 310.872 138.923 307.855C132.946 304.679 129.012 298.951 126.55 292.994C126.237 292.364 125.258 292.86 125.511 293.49ZM216.183 268.484C216.229 266.154 215.876 262.622 212.801 262.195C209.786 261.775 208.628 265.588 208.847 267.822C208.887 268.496 209.966 268.515 209.926 267.841C209.746 266.18 210.638 262.361 213.214 263.341C215.197 264.111 215.191 266.702 215.158 268.407C215.151 268.719 215.357 268.935 215.683 268.942C216.01 268.948 216.176 268.745 216.183 268.484ZM194.357 268.21C194.184 266.231 193.944 262.342 191.248 261.973C188.073 261.502 187.334 265.734 187.235 267.911C187.228 268.223 187.434 268.433 187.76 268.439C188.087 268.445 188.306 268.242 188.313 267.93C188.339 266.581 189.038 261.826 191.548 263.176C193.045 263.984 193.145 266.835 193.278 268.184C193.318 268.859 194.397 268.885 194.357 268.21ZM167.785 217.911C168.93 219.954 170.481 222.945 173.429 221.551C176.378 220.157 176.911 215.505 177.19 212.762L176.105 212.895C176.964 215.505 177.729 220.234 181.171 220.978C184.612 221.717 186.576 218.337 187.334 215.708C187.394 215.448 187.241 215.136 186.968 215.078C186.702 215.021 186.376 215.174 186.316 215.428C185.444 218.369 182.003 222.55 179.234 218.191C178.235 216.619 177.803 214.429 177.19 212.704C177.144 212.399 176.877 212.233 176.605 212.227C176.278 212.278 176.112 212.533 176.105 212.793C175.952 214.811 175.48 216.771 174.628 218.617C173.782 220.31 172.604 222.258 169.802 219.406C169.382 218.827 169.016 218.197 168.71 217.516C168.55 217.255 168.231 217.198 167.958 217.344C167.685 217.395 167.625 217.701 167.785 217.911ZM190.01 189.633C189.657 193.254 191.095 199.243 195.735 199.803C200.96 200.427 202.018 194.018 202.63 190.505C202.757 189.836 201.732 189.556 201.612 190.225C201.06 193.273 200.56 198.861 196.134 198.721C191.974 198.588 190.802 192.866 191.089 189.703C191.155 188.984 190.077 188.958 190.01 189.633ZM161.122 191.186C161.328 194.094 162.227 200.122 157.847 200.192C154.279 200.223 151.983 196.5 151.564 193.483C151.464 192.809 150.432 193.101 150.532 193.725C150.991 197.258 153.98 201.566 158.2 201.293C163.285 200.974 162.453 194.527 162.2 191.205C162.16 190.53 161.082 190.511 161.122 191.186Z" fill="#100F0D"/>
<path d="M88.9579 441.561C90.7684 442.019 92.3392 441.847 93.6705 441.052C95.0151 440.269 95.9935 438.932 96.5992 437.029L97.9039 432.651C97.9571 432.498 98.0703 432.441 98.25 432.472L98.463 432.6C98.656 432.842 98.9023 433.204 99.2085 433.694C99.5812 434.375 100.021 435.063 100.54 435.756C101.072 436.457 101.718 436.896 102.483 437.08C103.122 437.182 103.821 437.08 104.587 436.775C105.366 436.469 106.118 436.132 106.85 435.756C107.575 435.368 108.208 435.082 108.74 434.891L109.033 434.865C109.353 434.955 109.499 435.145 109.486 435.451L109.273 436.087C109.113 436.431 108.967 436.819 108.847 437.259C108.401 439.41 108.154 440.988 108.101 441.994C108.061 443.012 108.288 443.929 108.767 444.743C109.619 445.965 110.744 446.742 112.148 447.085C113.14 447.34 114.118 447.302 115.077 446.984C116.049 446.678 116.834 445.997 117.42 444.947L117.526 444.82C117.613 444.648 117.746 444.393 117.926 444.056C118.778 442.204 120.861 435.235 124.183 423.129C124.642 421.398 124.942 420.036 125.088 419.03C125.228 418.012 125.194 417.013 124.981 416.026C124.516 414.499 123.497 413.544 121.92 413.15C121.134 412.965 120.276 412.971 119.337 413.175C118.392 413.366 117.453 413.831 116.515 414.575C112.96 417.427 110.511 419.406 109.166 420.507C107.709 421.748 106.863 422.41 106.637 422.493C106.424 422.582 106.291 422.614 106.237 422.595C106.164 422.582 106.091 422.518 106.024 422.416C105.951 422.302 105.891 422.162 105.838 422.009L101.179 410.145C100.806 409.248 100.3 408.535 99.6611 408.007C99.0221 407.485 98.3365 407.129 97.611 406.938C96.4728 406.67 95.3812 406.836 94.3361 407.447C93.6971 407.803 93.0714 408.452 92.4724 409.382C91.8866 410.298 91.2277 411.966 90.5021 414.372C87.8529 424.186 86.2754 430.047 85.7629 431.963L85.1771 434.051C84.9974 434.713 84.8976 435.133 84.8842 435.298C84.7911 436.966 85.2104 438.366 86.1356 439.499C87.0542 440.632 87.9994 441.319 88.9579 441.561Z" fill="#E6829C"/>
<path d="M127.765 449.582C128.81 449.747 129.822 449.709 130.801 449.454C131.792 449.212 132.664 448.64 133.41 447.723C134.169 446.794 134.714 445.381 135.034 443.497C135.653 440.582 136.265 437.349 136.871 433.797C137.949 427.471 138.635 422.965 138.921 420.279C139.028 418.923 138.628 417.721 137.723 416.664C136.818 415.595 135.6 414.946 134.075 414.704C132.511 414.449 131.153 414.716 130.002 415.493C128.864 416.276 128.098 417.415 127.712 418.904C127.586 419.331 127.472 419.744 127.366 420.152C127.259 420.546 127.14 421.056 127.02 421.679C126.913 422.309 126.754 423.22 126.541 424.403L123.905 440.824L123.638 441.944C123.299 444 123.399 445.712 123.931 447.087C124.464 448.442 125.742 449.276 127.765 449.582Z" fill="#E6829C"/>
<path d="M165.216 454.074C166.867 454.189 168.118 453.832 168.97 453.005C169.835 452.19 170.488 450.758 170.914 448.702C171.353 446.653 171.719 443.833 172.005 440.25C172.378 435.381 172.624 432.103 172.751 430.423L173.283 423.982C173.37 422.811 172.897 421.653 171.872 420.494C170.84 419.323 169.509 418.68 167.878 418.56C164.983 418.356 162.986 419.642 161.888 422.404C161.282 423.982 160.756 426.884 160.317 431.111C160.264 431.893 160.004 432.32 159.545 432.383C159.332 432.371 159.092 432.154 158.826 431.747L157.734 430.092C153.454 423.218 150.712 419.247 149.507 418.178C148.635 417.484 147.617 417.096 146.445 417.007C145.68 416.956 144.941 417.083 144.235 417.388C143.523 417.694 142.904 418.248 142.372 419.043C141.852 419.845 141.533 420.965 141.413 422.404C141.373 422.404 141.26 423.46 141.067 425.561C140.887 427.648 140.681 430.111 140.455 432.944C140.222 435.782 140.015 438.309 139.842 440.53C139.589 443.706 139.476 445.291 139.496 445.291C139.423 446.125 139.476 447.092 139.656 448.193C140.115 450.911 141.813 452.368 144.741 452.572C146.605 452.706 148.043 452.254 149.055 451.223C150.066 450.192 150.625 448.976 150.732 447.582C150.838 446.347 151.058 444.495 151.398 442.032L151.424 441.803C151.424 441.669 151.484 441.51 151.611 441.319C151.73 441.116 151.877 441.014 152.037 441.014C152.143 441.033 152.25 441.103 152.356 441.218C153.401 442.459 154.353 443.802 155.205 445.24L156.43 447.124C157.262 448.435 158.44 449.842 159.971 451.35C161.495 452.877 163.246 453.781 165.216 454.074Z" fill="#E6829C"/>
<path d="M181.391 453.635C182.456 453.635 183.448 453.438 184.373 453.05C185.312 452.642 186.064 451.923 186.637 450.886C187.202 449.836 187.475 448.359 187.462 446.456C187.548 443.471 187.575 440.187 187.542 436.604C187.469 430.188 187.342 425.644 187.169 422.958C187.023 421.583 186.41 420.45 185.332 419.546C184.267 418.649 182.949 418.21 181.391 418.223C179.807 418.242 178.523 418.732 177.531 419.699C176.552 420.654 176 421.889 175.88 423.416C175.827 423.843 175.78 424.269 175.747 424.689C175.727 425.096 175.707 425.625 175.694 426.267C175.694 426.917 175.7 427.84 175.72 429.042L176.04 445.616L175.987 446.787C176.02 448.862 176.419 450.529 177.185 451.802C177.944 453.062 179.348 453.667 181.391 453.635Z" fill="#E6829C"/>
<path d="M197.656 440.628L199.999 440.424V440.373L202.901 440.195C203.859 440.131 204.565 440.055 205.031 439.966C205.51 439.883 205.976 439.705 206.442 439.431C207.221 438.973 207.8 438.406 208.172 437.725C208.545 437.032 208.705 436.319 208.652 435.587C208.578 434.518 208.093 433.576 207.187 432.761C206.295 431.946 205.037 431.59 203.407 431.692L201.676 431.794C199.493 431.946 197.842 432.074 196.724 432.176C195.619 432.277 194.813 432.392 194.301 432.506C193.802 432.627 193.376 432.787 193.023 432.99C192.184 433.468 191.592 434.053 191.239 434.747C190.886 435.447 190.733 436.16 190.786 436.885C190.84 437.636 191.119 438.336 191.638 438.998C192.151 439.66 192.87 440.138 193.795 440.424C194.966 440.666 196.251 440.73 197.656 440.628Z" fill="#E6829C"/>
<path d="M219.179 451.807C221.023 451.52 222.387 450.757 223.279 449.516C224.184 448.262 224.504 446.639 224.238 444.653L223.572 440.147C223.552 439.994 223.632 439.911 223.812 439.892H224.051C224.351 440.045 224.724 440.287 225.17 440.605C225.809 441.083 226.514 441.541 227.3 441.98C228.078 442.425 228.85 442.585 229.616 442.464C230.255 442.298 230.854 441.923 231.426 441.343C232.012 440.771 232.551 440.166 233.051 439.536C233.563 438.893 234.022 438.378 234.435 437.983L234.675 437.881C235.007 437.817 235.234 437.926 235.34 438.212L235.42 438.874C235.42 439.269 235.46 439.682 235.553 440.121C236.046 442.279 236.492 443.826 236.885 444.755C237.271 445.69 237.856 446.435 238.642 446.995C239.933 447.778 241.304 448.058 242.742 447.835C243.734 447.67 244.606 447.25 245.351 446.588C246.11 445.926 246.549 445.003 246.656 443.813V443.66C246.669 443.476 246.683 443.189 246.683 442.795C246.696 440.796 245.644 433.604 243.514 421.231C243.208 419.468 242.902 418.1 242.582 417.133C242.276 416.165 241.837 415.274 241.251 414.459C240.166 413.237 238.828 412.754 237.231 413.008C236.432 413.129 235.64 413.467 234.861 414.027C234.096 414.574 233.43 415.363 232.864 416.394C230.841 420.404 229.443 423.166 228.684 424.694C227.885 426.374 227.393 427.303 227.22 427.469C227.06 427.64 226.953 427.723 226.9 427.723C226.827 427.742 226.727 427.717 226.607 427.647C226.501 427.583 226.394 427.481 226.288 427.341L216.969 418.329C216.237 417.654 215.478 417.203 214.679 416.98C213.881 416.744 213.108 416.687 212.363 416.802C211.211 416.993 210.286 417.559 209.594 418.507C209.168 419.106 208.888 419.933 208.742 421.002C208.582 422.071 208.682 423.854 209.035 426.348C210.812 436.347 211.857 442.311 212.177 444.246L212.549 446.384C212.669 447.065 212.762 447.492 212.816 447.657C213.435 449.223 214.4 450.343 215.718 451.018C217.049 451.699 218.2 451.96 219.179 451.807Z" fill="#E6829C"/>
<path d="M261.131 443.845C262.369 443.507 263.82 443.094 265.471 442.597C266.695 442.228 268.033 441.846 269.491 441.451C270.962 441.044 272.114 440.274 272.952 439.135C273.804 437.983 274.004 436.64 273.565 435.112C273.119 433.585 272.327 432.426 271.195 431.625C270.077 430.81 268.852 430.498 267.521 430.683C264.892 431.395 262.822 431.943 261.317 432.312C261.084 432.331 260.924 432.274 260.838 432.134C260.765 431.981 260.685 431.765 260.598 431.472C260.505 431.204 260.472 431.001 260.492 430.861C260.505 430.727 260.638 430.619 260.891 430.53C261.157 430.447 261.59 430.301 262.196 430.097L264.166 429.486C264.539 429.384 265.058 429.244 265.737 429.053C266.429 428.869 267.095 428.582 267.734 428.188C269.172 427.322 269.491 425.54 268.692 422.841C268.353 421.689 267.874 420.9 267.255 420.474C266.203 419.799 264.792 419.697 263.021 420.168C261.104 420.697 259.833 421.021 259.214 421.136C258.608 421.257 258.229 421.263 258.069 421.161C257.909 421.047 257.789 420.849 257.723 420.576L257.67 420.397L257.403 419.761C257.35 419.557 257.443 419.398 257.696 419.277C258.262 419.124 259.107 418.857 260.226 418.463C261.677 417.953 262.968 417.546 264.086 417.241C265.378 416.903 266.269 416.318 266.749 415.484C267.421 414.23 267.527 412.811 267.068 411.232C266.622 409.775 265.95 408.725 265.045 408.076C263.341 406.904 261.091 406.694 258.309 407.439L247.845 410.24C245.116 411.156 243.904 412.671 244.224 414.771C244.277 415.229 244.663 416.649 245.369 419.023C245.742 420.296 246.134 421.594 246.54 422.918C246.953 424.242 247.299 425.362 247.579 426.278C247.865 427.182 248.018 427.621 248.031 427.602L250.507 436.131C251.346 438.982 252.118 441.07 252.85 442.393C253.576 443.705 254.554 444.43 255.779 444.583C257.017 444.723 258.801 444.475 261.131 443.845Z" fill="#E6829C"/>
</g>
<defs>
<filter id="filter0_d_67_3" x="-144" y="0" width="647" height="619" filterUnits="userSpaceOnUse" color-interpolation-filters="sRGB">
<feFlood flood-opacity="0" result="BackgroundImageFix"/>
<feColorMatrix in="SourceAlpha" type="matrix" values="0 0 0 0 0 0 0 0 0 0 0 0 0 0 0 0 0 0 127 0" result="hardAlpha"/>
<feOffset dy="4"/>
<feGaussianBlur stdDeviation="2"/>
<feComposite in2="hardAlpha" operator="out"/>
<feColorMatrix type="matrix" values="0 0 0 0 0 0 0 0 0 0 0 0 0 0 0 0 0 0 0.25 0"/>
<feBlend mode="normal" in2="BackgroundImageFix" result="effect1_dropShadow_67_3"/>
<feBlend mode="normal" in="SourceGraphic" in2="effect1_dropShadow_67_3" result="shape"/>
</filter>
</defs>
</svg>
